G04 EAGLE Gerber RS-274X export*
G75*
%MOMM*%
%FSLAX34Y34*%
%LPD*%
%INBottom Copper*%
%IPPOS*%
%AMOC8*
5,1,8,0,0,1.08239X$1,22.5*%
G01*
%ADD10R,2.400000X1.800000*%
%ADD11C,1.270000*%
%ADD12C,1.524000*%
%ADD13R,0.800000X0.900000*%
%ADD14R,1.800000X1.600000*%
%ADD15R,1.600000X1.800000*%
%ADD16C,1.016000*%
%ADD17C,0.609600*%
%ADD18C,1.270000*%
%ADD19C,2.540000*%
%ADD20R,1.500000X1.500000*%


D10*
X-96346Y212904D03*
X-96346Y253404D03*
X-96316Y112747D03*
X-96316Y153247D03*
X-316234Y212618D03*
X-316234Y253118D03*
X-313705Y113318D03*
X-313705Y153818D03*
D11*
X-204725Y17668D03*
X-174771Y17811D03*
X-234958Y17557D03*
X-264813Y17704D03*
X-125156Y18944D03*
D12*
X-71563Y245227D02*
X-56323Y245227D01*
X-56323Y219827D02*
X-71563Y219827D01*
X-71458Y145250D02*
X-56218Y145250D01*
X-56218Y119850D02*
X-71458Y119850D01*
X-336227Y245219D02*
X-351467Y245219D01*
X-351467Y219819D02*
X-336227Y219819D01*
X-336305Y145252D02*
X-351545Y145252D01*
X-351545Y119852D02*
X-336305Y119852D01*
D13*
X-150338Y238072D03*
X-131338Y238072D03*
X-140838Y259072D03*
X-151705Y137736D03*
X-132705Y137736D03*
X-142205Y158736D03*
X-282379Y236156D03*
X-263379Y236156D03*
X-272879Y257156D03*
X-281392Y136554D03*
X-262392Y136554D03*
X-271892Y157554D03*
D14*
X-194703Y47890D03*
X-194703Y75890D03*
D15*
X-126505Y211823D03*
X-154505Y211823D03*
D14*
X-154644Y47911D03*
X-154644Y75911D03*
D15*
X-128655Y112397D03*
X-156655Y112397D03*
D14*
X-234568Y48159D03*
X-234568Y76159D03*
D15*
X-258177Y210531D03*
X-286177Y210531D03*
D14*
X-294637Y47987D03*
X-294637Y75987D03*
D15*
X-258246Y112040D03*
X-286246Y112040D03*
D11*
X-94385Y18405D03*
D12*
X-192300Y325670D02*
X-192300Y340910D01*
X-217700Y340910D02*
X-217700Y325670D01*
D16*
X-194703Y47890D02*
X-204725Y37868D01*
X-204725Y17668D01*
X-154505Y233905D02*
X-150338Y238072D01*
X-154505Y233905D02*
X-154505Y211823D01*
D17*
X-155971Y213290D01*
D18*
X-194703Y168587D02*
X-194703Y75890D01*
X-155971Y207319D02*
X-155971Y213290D01*
X-155971Y207319D02*
X-194703Y168587D01*
X-72120Y253404D02*
X-63943Y245227D01*
X-72120Y253404D02*
X-96346Y253404D01*
D17*
X-100114Y253404D01*
D16*
X-105782Y259072D02*
X-140838Y259072D01*
X-105782Y259072D02*
X-100114Y253404D01*
D17*
X-258177Y213290D02*
X-258177Y210531D01*
X-262392Y136554D02*
X-262392Y135682D01*
X-132705Y136383D02*
X-132705Y137736D01*
X-132705Y136383D02*
X-132705Y135995D01*
D16*
X-217700Y310000D02*
X-217700Y333290D01*
D19*
X-217700Y310000D02*
X-217700Y270000D01*
X-217700Y235590D01*
X-240000Y213290D01*
D18*
X-258177Y213290D01*
D20*
X-126532Y191267D03*
X-128830Y91618D03*
X-237226Y195371D03*
X-258315Y91484D03*
D16*
X-126532Y211795D02*
X-126505Y211823D01*
X-126532Y211795D02*
X-126532Y191267D01*
X-126505Y211823D02*
X-126505Y233239D01*
X-131338Y238072D01*
X-258177Y230955D02*
X-258177Y210531D01*
X-258177Y230955D02*
X-263379Y236156D01*
X-258246Y132408D02*
X-258246Y112040D01*
X-258246Y132408D02*
X-262392Y136554D01*
X-128655Y132333D02*
X-128655Y112397D01*
X-128655Y132333D02*
X-132705Y136383D01*
X-128830Y112222D02*
X-128830Y91618D01*
X-128830Y112222D02*
X-128655Y112397D01*
X-125156Y57434D02*
X-125156Y18944D01*
X-128830Y61107D02*
X-128830Y91618D01*
X-128830Y61107D02*
X-125156Y57434D01*
X-258315Y91484D02*
X-258315Y111972D01*
X-258246Y112040D01*
X-237226Y195371D02*
X-252386Y210531D01*
X-258177Y210531D01*
X-237226Y210516D02*
X-237226Y195371D01*
X-237226Y210516D02*
X-240000Y213290D01*
X-237226Y195371D02*
X-251339Y195371D01*
X-261146Y205178D01*
D18*
X-70866Y212904D02*
X-63943Y219827D01*
X-70866Y212904D02*
X-96346Y212904D01*
X-336646Y212618D02*
X-343847Y219819D01*
X-336646Y212618D02*
X-316234Y212618D01*
D19*
X-52860Y333290D02*
X-22860Y303290D01*
X-22860Y221022D01*
D16*
X-343847Y219819D02*
X-350611Y219819D01*
X-94385Y110816D02*
X-94385Y18405D01*
X-94385Y110816D02*
X-96316Y112747D01*
X-70941Y112747D01*
X-63838Y119850D01*
D18*
X-63943Y219827D02*
X-24055Y219827D01*
X-22860Y221022D01*
X-56878Y219827D02*
X-63943Y219827D01*
D16*
X-174307Y333290D02*
X-192300Y333290D01*
X-174307Y333290D02*
X-174190Y333173D01*
X-192300Y333290D02*
X-192300Y352300D01*
X-200000Y360000D01*
D19*
X-174307Y333290D02*
X-52860Y333290D01*
X-24055Y219827D02*
X-24055Y125945D01*
X-30000Y120000D01*
X-200000Y360000D02*
X-210000Y370000D01*
X-307140Y370000D02*
X-387140Y290000D01*
X-387140Y220000D01*
X-387140Y127140D01*
X-380000Y120000D01*
X-307140Y370000D02*
X-210000Y370000D01*
X-50000Y120000D02*
X-30000Y120000D01*
D16*
X-50150Y119850D02*
X-63838Y119850D01*
X-50150Y119850D02*
X-50000Y120000D01*
D19*
X-360000Y120000D02*
X-380000Y120000D01*
D16*
X-344073Y120000D02*
X-343925Y119852D01*
X-344073Y120000D02*
X-360000Y120000D01*
D19*
X-360000Y220000D02*
X-387140Y220000D01*
D16*
X-344028Y220000D02*
X-343847Y219819D01*
X-344028Y220000D02*
X-360000Y220000D01*
X-337391Y113318D02*
X-313705Y113318D01*
X-337391Y113318D02*
X-343925Y119852D01*
X-353318Y113318D02*
X-313705Y113318D01*
X-353318Y113318D02*
X-360000Y120000D01*
D17*
X-156655Y112397D02*
X-154644Y110385D01*
D16*
X-156655Y112397D02*
X-156655Y132786D01*
X-151705Y137736D01*
X-154644Y86723D02*
X-154644Y75911D01*
X-154644Y86723D02*
X-156790Y88870D01*
X-156790Y108239D01*
X-154644Y110385D01*
D17*
X-145446Y158736D02*
X-142205Y158736D01*
D16*
X-71835Y153247D02*
X-63838Y145250D01*
X-71835Y153247D02*
X-96316Y153247D01*
X-101805Y158736D02*
X-142205Y158736D01*
X-101805Y158736D02*
X-96316Y153247D01*
X-174771Y27784D02*
X-174771Y17811D01*
X-174771Y27784D02*
X-154644Y47911D01*
D17*
X-286177Y232358D02*
X-282379Y236156D01*
D16*
X-286177Y232358D02*
X-286177Y210531D01*
X-234568Y147858D02*
X-234568Y76159D01*
X-234568Y147858D02*
X-286177Y199467D01*
D17*
X-286177Y210531D01*
D18*
X-335947Y253118D02*
X-343847Y245219D01*
X-335947Y253118D02*
X-316234Y253118D01*
D16*
X-312196Y257156D02*
X-272879Y257156D01*
X-312196Y257156D02*
X-316234Y253118D01*
X-294637Y47528D02*
X-264813Y17704D01*
D17*
X-294637Y47528D02*
X-294637Y47987D01*
D16*
X-286246Y131700D02*
X-281392Y136554D01*
X-286246Y131700D02*
X-286246Y112040D01*
D17*
X-286246Y102040D01*
D16*
X-286246Y84378D02*
X-294637Y75987D01*
X-286246Y84378D02*
X-286246Y112040D01*
D17*
X-313705Y153818D02*
X-320529Y153818D01*
D16*
X-335359Y153818D02*
X-343925Y145252D01*
X-335359Y153818D02*
X-313705Y153818D01*
X-309969Y157554D02*
X-271892Y157554D01*
X-309969Y157554D02*
X-313705Y153818D01*
X-234568Y48159D02*
X-234568Y17946D01*
D17*
X-234958Y17557D01*
M02*
