G04 EAGLE Gerber RS-274X export*
G75*
%MOMM*%
%FSLAX34Y34*%
%LPD*%
%INSilkscreen Bottom*%
%IPPOS*%
%AMOC8*
5,1,8,0,0,1.08239X$1,22.5*%
G01*
%ADD10C,0.203200*%
%ADD11R,2.450000X0.675000*%
%ADD12C,0.101600*%
%ADD13C,0.127000*%


D10*
X109346Y222804D02*
X109346Y243404D01*
X83346Y243404D02*
X83346Y222804D01*
D11*
X96346Y225879D03*
D12*
X179904Y209262D02*
X191588Y209262D01*
X191588Y212508D01*
X191589Y212508D02*
X191587Y212621D01*
X191581Y212734D01*
X191571Y212847D01*
X191557Y212960D01*
X191540Y213072D01*
X191518Y213183D01*
X191493Y213293D01*
X191463Y213403D01*
X191430Y213511D01*
X191393Y213618D01*
X191353Y213724D01*
X191308Y213828D01*
X191260Y213931D01*
X191209Y214032D01*
X191154Y214131D01*
X191096Y214228D01*
X191034Y214323D01*
X190969Y214416D01*
X190901Y214506D01*
X190830Y214594D01*
X190755Y214680D01*
X190678Y214763D01*
X190598Y214843D01*
X190515Y214920D01*
X190429Y214995D01*
X190341Y215066D01*
X190251Y215134D01*
X190158Y215199D01*
X190063Y215261D01*
X189966Y215319D01*
X189867Y215374D01*
X189766Y215425D01*
X189663Y215473D01*
X189559Y215518D01*
X189453Y215558D01*
X189346Y215595D01*
X189238Y215628D01*
X189128Y215658D01*
X189018Y215683D01*
X188907Y215705D01*
X188795Y215722D01*
X188682Y215736D01*
X188569Y215746D01*
X188456Y215752D01*
X188343Y215754D01*
X188343Y215753D02*
X183150Y215753D01*
X183150Y215754D02*
X183037Y215752D01*
X182924Y215746D01*
X182811Y215736D01*
X182698Y215722D01*
X182586Y215705D01*
X182475Y215683D01*
X182365Y215658D01*
X182255Y215628D01*
X182147Y215595D01*
X182040Y215558D01*
X181934Y215518D01*
X181830Y215473D01*
X181727Y215425D01*
X181626Y215374D01*
X181527Y215319D01*
X181430Y215261D01*
X181335Y215199D01*
X181242Y215134D01*
X181152Y215066D01*
X181064Y214995D01*
X180978Y214920D01*
X180895Y214843D01*
X180815Y214763D01*
X180738Y214680D01*
X180663Y214594D01*
X180592Y214506D01*
X180524Y214416D01*
X180459Y214323D01*
X180397Y214228D01*
X180339Y214131D01*
X180284Y214032D01*
X180233Y213931D01*
X180185Y213828D01*
X180140Y213724D01*
X180100Y213618D01*
X180063Y213511D01*
X180030Y213403D01*
X180000Y213293D01*
X179975Y213183D01*
X179953Y213072D01*
X179936Y212960D01*
X179922Y212847D01*
X179912Y212734D01*
X179906Y212621D01*
X179904Y212508D01*
X179904Y209262D01*
X188992Y221073D02*
X191588Y224319D01*
X179904Y224319D01*
X179904Y227564D02*
X179904Y221073D01*
D10*
X109316Y143247D02*
X109316Y122647D01*
X83316Y122647D02*
X83316Y143247D01*
D11*
X96316Y125722D03*
D12*
X115874Y108105D02*
X127558Y108105D01*
X127558Y111350D01*
X127556Y111463D01*
X127550Y111576D01*
X127540Y111689D01*
X127526Y111802D01*
X127509Y111914D01*
X127487Y112025D01*
X127462Y112135D01*
X127432Y112245D01*
X127399Y112353D01*
X127362Y112460D01*
X127322Y112566D01*
X127277Y112670D01*
X127229Y112773D01*
X127178Y112874D01*
X127123Y112973D01*
X127065Y113070D01*
X127003Y113165D01*
X126938Y113258D01*
X126870Y113348D01*
X126799Y113436D01*
X126724Y113522D01*
X126647Y113605D01*
X126567Y113685D01*
X126484Y113762D01*
X126398Y113837D01*
X126310Y113908D01*
X126220Y113976D01*
X126127Y114041D01*
X126032Y114103D01*
X125935Y114161D01*
X125836Y114216D01*
X125735Y114267D01*
X125632Y114315D01*
X125528Y114360D01*
X125422Y114400D01*
X125315Y114437D01*
X125207Y114470D01*
X125097Y114500D01*
X124987Y114525D01*
X124876Y114547D01*
X124764Y114564D01*
X124651Y114578D01*
X124538Y114588D01*
X124425Y114594D01*
X124312Y114596D01*
X119119Y114596D01*
X119006Y114594D01*
X118893Y114588D01*
X118780Y114578D01*
X118667Y114564D01*
X118555Y114547D01*
X118444Y114525D01*
X118334Y114500D01*
X118224Y114470D01*
X118116Y114437D01*
X118009Y114400D01*
X117903Y114360D01*
X117799Y114315D01*
X117696Y114267D01*
X117595Y114216D01*
X117496Y114161D01*
X117399Y114103D01*
X117304Y114041D01*
X117211Y113976D01*
X117121Y113908D01*
X117033Y113837D01*
X116947Y113762D01*
X116864Y113685D01*
X116784Y113605D01*
X116707Y113522D01*
X116632Y113436D01*
X116561Y113348D01*
X116493Y113258D01*
X116428Y113165D01*
X116366Y113070D01*
X116308Y112973D01*
X116253Y112874D01*
X116202Y112773D01*
X116154Y112670D01*
X116109Y112566D01*
X116069Y112460D01*
X116032Y112353D01*
X115999Y112245D01*
X115969Y112135D01*
X115944Y112025D01*
X115922Y111914D01*
X115905Y111802D01*
X115891Y111689D01*
X115881Y111576D01*
X115875Y111463D01*
X115873Y111350D01*
X115874Y111350D02*
X115874Y108105D01*
X127558Y123486D02*
X127556Y123593D01*
X127550Y123699D01*
X127540Y123805D01*
X127527Y123911D01*
X127509Y124017D01*
X127488Y124121D01*
X127463Y124225D01*
X127434Y124328D01*
X127402Y124429D01*
X127365Y124529D01*
X127325Y124628D01*
X127282Y124726D01*
X127235Y124822D01*
X127184Y124916D01*
X127130Y125008D01*
X127073Y125098D01*
X127013Y125186D01*
X126949Y125271D01*
X126882Y125354D01*
X126812Y125435D01*
X126740Y125513D01*
X126664Y125589D01*
X126586Y125661D01*
X126505Y125731D01*
X126422Y125798D01*
X126337Y125862D01*
X126249Y125922D01*
X126159Y125979D01*
X126067Y126033D01*
X125973Y126084D01*
X125877Y126131D01*
X125779Y126174D01*
X125680Y126214D01*
X125580Y126251D01*
X125479Y126283D01*
X125376Y126312D01*
X125272Y126337D01*
X125168Y126358D01*
X125062Y126376D01*
X124956Y126389D01*
X124850Y126399D01*
X124744Y126405D01*
X124637Y126407D01*
X127558Y123486D02*
X127556Y123365D01*
X127550Y123244D01*
X127540Y123124D01*
X127527Y123003D01*
X127509Y122884D01*
X127488Y122764D01*
X127463Y122646D01*
X127434Y122529D01*
X127401Y122412D01*
X127365Y122297D01*
X127324Y122183D01*
X127281Y122070D01*
X127233Y121958D01*
X127182Y121849D01*
X127127Y121741D01*
X127069Y121634D01*
X127008Y121530D01*
X126943Y121428D01*
X126875Y121328D01*
X126804Y121230D01*
X126730Y121134D01*
X126653Y121041D01*
X126572Y120951D01*
X126489Y120863D01*
X126403Y120778D01*
X126314Y120695D01*
X126223Y120616D01*
X126129Y120539D01*
X126033Y120466D01*
X125935Y120396D01*
X125834Y120329D01*
X125731Y120265D01*
X125626Y120205D01*
X125519Y120148D01*
X125411Y120094D01*
X125301Y120044D01*
X125189Y119998D01*
X125076Y119955D01*
X124961Y119916D01*
X122365Y125433D02*
X122442Y125512D01*
X122523Y125588D01*
X122606Y125661D01*
X122691Y125731D01*
X122779Y125798D01*
X122869Y125862D01*
X122961Y125922D01*
X123056Y125979D01*
X123152Y126033D01*
X123250Y126084D01*
X123350Y126131D01*
X123452Y126175D01*
X123555Y126215D01*
X123659Y126251D01*
X123765Y126283D01*
X123871Y126312D01*
X123979Y126337D01*
X124087Y126359D01*
X124197Y126376D01*
X124306Y126390D01*
X124416Y126399D01*
X124527Y126405D01*
X124637Y126407D01*
X122365Y125433D02*
X115874Y119916D01*
X115874Y126407D01*
D10*
X329234Y222518D02*
X329234Y243118D01*
X303234Y243118D02*
X303234Y222518D01*
D11*
X316234Y225593D03*
D12*
X335792Y207976D02*
X347476Y207976D01*
X347476Y211222D01*
X347474Y211335D01*
X347468Y211448D01*
X347458Y211561D01*
X347444Y211674D01*
X347427Y211786D01*
X347405Y211897D01*
X347380Y212007D01*
X347350Y212117D01*
X347317Y212225D01*
X347280Y212332D01*
X347240Y212438D01*
X347195Y212542D01*
X347147Y212645D01*
X347096Y212746D01*
X347041Y212845D01*
X346983Y212942D01*
X346921Y213037D01*
X346856Y213130D01*
X346788Y213220D01*
X346717Y213308D01*
X346642Y213394D01*
X346565Y213477D01*
X346485Y213557D01*
X346402Y213634D01*
X346316Y213709D01*
X346228Y213780D01*
X346138Y213848D01*
X346045Y213913D01*
X345950Y213975D01*
X345853Y214033D01*
X345754Y214088D01*
X345653Y214139D01*
X345550Y214187D01*
X345446Y214232D01*
X345340Y214272D01*
X345233Y214309D01*
X345125Y214342D01*
X345015Y214372D01*
X344905Y214397D01*
X344794Y214419D01*
X344682Y214436D01*
X344569Y214450D01*
X344456Y214460D01*
X344343Y214466D01*
X344230Y214468D01*
X344230Y214467D02*
X339037Y214467D01*
X339037Y214468D02*
X338924Y214466D01*
X338811Y214460D01*
X338698Y214450D01*
X338585Y214436D01*
X338473Y214419D01*
X338362Y214397D01*
X338252Y214372D01*
X338142Y214342D01*
X338034Y214309D01*
X337927Y214272D01*
X337821Y214232D01*
X337717Y214187D01*
X337614Y214139D01*
X337513Y214088D01*
X337414Y214033D01*
X337317Y213975D01*
X337222Y213913D01*
X337129Y213848D01*
X337039Y213780D01*
X336951Y213709D01*
X336865Y213634D01*
X336782Y213557D01*
X336702Y213477D01*
X336625Y213394D01*
X336550Y213308D01*
X336479Y213220D01*
X336411Y213130D01*
X336346Y213037D01*
X336284Y212942D01*
X336226Y212845D01*
X336171Y212746D01*
X336120Y212645D01*
X336072Y212542D01*
X336027Y212438D01*
X335987Y212332D01*
X335950Y212225D01*
X335917Y212117D01*
X335887Y212007D01*
X335862Y211897D01*
X335840Y211786D01*
X335823Y211674D01*
X335809Y211561D01*
X335799Y211448D01*
X335793Y211335D01*
X335791Y211222D01*
X335792Y211222D02*
X335792Y207976D01*
X335792Y219787D02*
X335792Y223033D01*
X335791Y223033D02*
X335793Y223146D01*
X335799Y223259D01*
X335809Y223372D01*
X335823Y223485D01*
X335840Y223597D01*
X335862Y223708D01*
X335887Y223818D01*
X335917Y223928D01*
X335950Y224036D01*
X335987Y224143D01*
X336027Y224249D01*
X336072Y224353D01*
X336120Y224456D01*
X336171Y224557D01*
X336226Y224656D01*
X336284Y224753D01*
X336346Y224848D01*
X336411Y224941D01*
X336479Y225031D01*
X336550Y225119D01*
X336625Y225205D01*
X336702Y225288D01*
X336782Y225368D01*
X336865Y225445D01*
X336951Y225520D01*
X337039Y225591D01*
X337129Y225659D01*
X337222Y225724D01*
X337317Y225786D01*
X337414Y225844D01*
X337513Y225899D01*
X337614Y225950D01*
X337717Y225998D01*
X337821Y226043D01*
X337927Y226083D01*
X338034Y226120D01*
X338142Y226153D01*
X338252Y226183D01*
X338362Y226208D01*
X338473Y226230D01*
X338585Y226247D01*
X338698Y226261D01*
X338811Y226271D01*
X338924Y226277D01*
X339037Y226279D01*
X339150Y226277D01*
X339263Y226271D01*
X339376Y226261D01*
X339489Y226247D01*
X339601Y226230D01*
X339712Y226208D01*
X339822Y226183D01*
X339932Y226153D01*
X340040Y226120D01*
X340147Y226083D01*
X340253Y226043D01*
X340357Y225998D01*
X340460Y225950D01*
X340561Y225899D01*
X340660Y225844D01*
X340757Y225786D01*
X340852Y225724D01*
X340945Y225659D01*
X341035Y225591D01*
X341123Y225520D01*
X341209Y225445D01*
X341292Y225368D01*
X341372Y225288D01*
X341449Y225205D01*
X341524Y225119D01*
X341595Y225031D01*
X341663Y224941D01*
X341728Y224848D01*
X341790Y224753D01*
X341848Y224656D01*
X341903Y224557D01*
X341954Y224456D01*
X342002Y224353D01*
X342047Y224249D01*
X342087Y224143D01*
X342124Y224036D01*
X342157Y223928D01*
X342187Y223818D01*
X342212Y223708D01*
X342234Y223597D01*
X342251Y223485D01*
X342265Y223372D01*
X342275Y223259D01*
X342281Y223146D01*
X342283Y223033D01*
X347476Y223682D02*
X347476Y219787D01*
X347475Y223682D02*
X347473Y223783D01*
X347467Y223883D01*
X347457Y223983D01*
X347444Y224083D01*
X347426Y224182D01*
X347405Y224281D01*
X347380Y224378D01*
X347351Y224475D01*
X347318Y224570D01*
X347282Y224664D01*
X347242Y224756D01*
X347199Y224847D01*
X347152Y224936D01*
X347102Y225023D01*
X347048Y225109D01*
X346991Y225192D01*
X346931Y225272D01*
X346868Y225351D01*
X346801Y225427D01*
X346732Y225500D01*
X346660Y225570D01*
X346586Y225638D01*
X346509Y225703D01*
X346429Y225764D01*
X346347Y225823D01*
X346263Y225878D01*
X346177Y225930D01*
X346089Y225979D01*
X345999Y226024D01*
X345907Y226066D01*
X345814Y226104D01*
X345719Y226138D01*
X345624Y226169D01*
X345527Y226196D01*
X345429Y226219D01*
X345330Y226239D01*
X345230Y226254D01*
X345130Y226266D01*
X345030Y226274D01*
X344929Y226278D01*
X344829Y226278D01*
X344728Y226274D01*
X344628Y226266D01*
X344528Y226254D01*
X344428Y226239D01*
X344329Y226219D01*
X344231Y226196D01*
X344134Y226169D01*
X344039Y226138D01*
X343944Y226104D01*
X343851Y226066D01*
X343759Y226024D01*
X343669Y225979D01*
X343581Y225930D01*
X343495Y225878D01*
X343411Y225823D01*
X343329Y225764D01*
X343249Y225703D01*
X343172Y225638D01*
X343098Y225570D01*
X343026Y225500D01*
X342957Y225427D01*
X342890Y225351D01*
X342827Y225272D01*
X342767Y225192D01*
X342710Y225109D01*
X342656Y225023D01*
X342606Y224936D01*
X342559Y224847D01*
X342516Y224756D01*
X342476Y224664D01*
X342440Y224570D01*
X342407Y224475D01*
X342378Y224378D01*
X342353Y224281D01*
X342332Y224182D01*
X342314Y224083D01*
X342301Y223983D01*
X342291Y223883D01*
X342285Y223783D01*
X342283Y223682D01*
X342283Y221085D01*
D10*
X326705Y143818D02*
X326705Y123218D01*
X300705Y123218D02*
X300705Y143818D01*
D11*
X313705Y126293D03*
D12*
X333263Y108676D02*
X344947Y108676D01*
X344947Y111922D01*
X344945Y112035D01*
X344939Y112148D01*
X344929Y112261D01*
X344915Y112374D01*
X344898Y112486D01*
X344876Y112597D01*
X344851Y112707D01*
X344821Y112817D01*
X344788Y112925D01*
X344751Y113032D01*
X344711Y113138D01*
X344666Y113242D01*
X344618Y113345D01*
X344567Y113446D01*
X344512Y113545D01*
X344454Y113642D01*
X344392Y113737D01*
X344327Y113830D01*
X344259Y113920D01*
X344188Y114008D01*
X344113Y114094D01*
X344036Y114177D01*
X343956Y114257D01*
X343873Y114334D01*
X343787Y114409D01*
X343699Y114480D01*
X343609Y114548D01*
X343516Y114613D01*
X343421Y114675D01*
X343324Y114733D01*
X343225Y114788D01*
X343124Y114839D01*
X343021Y114887D01*
X342917Y114932D01*
X342811Y114972D01*
X342704Y115009D01*
X342596Y115042D01*
X342486Y115072D01*
X342376Y115097D01*
X342265Y115119D01*
X342153Y115136D01*
X342040Y115150D01*
X341927Y115160D01*
X341814Y115166D01*
X341701Y115168D01*
X336508Y115168D01*
X336395Y115166D01*
X336282Y115160D01*
X336169Y115150D01*
X336056Y115136D01*
X335944Y115119D01*
X335833Y115097D01*
X335723Y115072D01*
X335613Y115042D01*
X335505Y115009D01*
X335398Y114972D01*
X335292Y114932D01*
X335188Y114887D01*
X335085Y114839D01*
X334984Y114788D01*
X334885Y114733D01*
X334788Y114675D01*
X334693Y114613D01*
X334600Y114548D01*
X334510Y114480D01*
X334422Y114409D01*
X334336Y114334D01*
X334253Y114257D01*
X334173Y114177D01*
X334096Y114094D01*
X334021Y114008D01*
X333950Y113920D01*
X333882Y113830D01*
X333817Y113737D01*
X333755Y113642D01*
X333697Y113545D01*
X333642Y113446D01*
X333591Y113345D01*
X333543Y113242D01*
X333498Y113138D01*
X333458Y113032D01*
X333421Y112925D01*
X333388Y112817D01*
X333358Y112707D01*
X333333Y112597D01*
X333311Y112486D01*
X333294Y112374D01*
X333280Y112261D01*
X333270Y112148D01*
X333264Y112035D01*
X333262Y111922D01*
X333263Y111922D02*
X333263Y108676D01*
X335859Y120487D02*
X344947Y123084D01*
X335859Y120487D02*
X335859Y126979D01*
X333263Y125031D02*
X338456Y125031D01*
D10*
X154838Y255072D02*
X148838Y255072D01*
X154838Y255072D02*
X154838Y247072D01*
X132838Y255072D02*
X126838Y255072D01*
X126838Y247072D01*
D13*
X159323Y244185D02*
X161468Y244185D01*
X161539Y244187D01*
X161611Y244193D01*
X161681Y244202D01*
X161751Y244215D01*
X161821Y244232D01*
X161889Y244253D01*
X161956Y244277D01*
X162022Y244305D01*
X162086Y244336D01*
X162149Y244371D01*
X162209Y244409D01*
X162268Y244450D01*
X162324Y244494D01*
X162378Y244541D01*
X162429Y244590D01*
X162477Y244643D01*
X162523Y244698D01*
X162565Y244755D01*
X162605Y244815D01*
X162641Y244876D01*
X162674Y244940D01*
X162703Y245005D01*
X162729Y245071D01*
X162752Y245139D01*
X162771Y245208D01*
X162786Y245278D01*
X162797Y245348D01*
X162805Y245419D01*
X162809Y245490D01*
X162809Y245562D01*
X162805Y245633D01*
X162797Y245704D01*
X162786Y245774D01*
X162771Y245844D01*
X162752Y245913D01*
X162729Y245981D01*
X162703Y246047D01*
X162674Y246112D01*
X162641Y246176D01*
X162605Y246237D01*
X162565Y246297D01*
X162523Y246354D01*
X162477Y246409D01*
X162429Y246462D01*
X162378Y246511D01*
X162324Y246558D01*
X162268Y246602D01*
X162209Y246643D01*
X162149Y246681D01*
X162086Y246716D01*
X162022Y246747D01*
X161956Y246775D01*
X161889Y246799D01*
X161821Y246820D01*
X161751Y246837D01*
X161681Y246850D01*
X161611Y246859D01*
X161539Y246865D01*
X161468Y246867D01*
X161468Y246866D02*
X159323Y246866D01*
X159323Y246867D02*
X159252Y246865D01*
X159180Y246859D01*
X159110Y246850D01*
X159040Y246837D01*
X158970Y246820D01*
X158902Y246799D01*
X158835Y246775D01*
X158769Y246747D01*
X158705Y246716D01*
X158642Y246681D01*
X158582Y246643D01*
X158523Y246602D01*
X158467Y246558D01*
X158413Y246511D01*
X158362Y246462D01*
X158314Y246409D01*
X158268Y246354D01*
X158226Y246297D01*
X158186Y246237D01*
X158150Y246176D01*
X158117Y246112D01*
X158088Y246047D01*
X158062Y245981D01*
X158039Y245913D01*
X158020Y245844D01*
X158005Y245774D01*
X157994Y245704D01*
X157986Y245633D01*
X157982Y245562D01*
X157982Y245490D01*
X157986Y245419D01*
X157994Y245348D01*
X158005Y245278D01*
X158020Y245208D01*
X158039Y245139D01*
X158062Y245071D01*
X158088Y245005D01*
X158117Y244940D01*
X158150Y244876D01*
X158186Y244815D01*
X158226Y244755D01*
X158268Y244698D01*
X158314Y244643D01*
X158362Y244590D01*
X158413Y244541D01*
X158467Y244494D01*
X158523Y244450D01*
X158582Y244409D01*
X158642Y244371D01*
X158705Y244336D01*
X158769Y244305D01*
X158835Y244277D01*
X158902Y244253D01*
X158970Y244232D01*
X159040Y244215D01*
X159110Y244202D01*
X159180Y244193D01*
X159252Y244187D01*
X159323Y244185D01*
X159055Y246330D02*
X157983Y247403D01*
X161736Y249277D02*
X162809Y250618D01*
X157983Y250618D01*
X157983Y249277D02*
X157983Y251959D01*
D10*
X156205Y154736D02*
X150205Y154736D01*
X156205Y154736D02*
X156205Y146736D01*
X134205Y154736D02*
X128205Y154736D01*
X128205Y146736D01*
D13*
X160691Y143850D02*
X162836Y143850D01*
X162836Y143849D02*
X162907Y143851D01*
X162979Y143857D01*
X163049Y143866D01*
X163119Y143879D01*
X163189Y143896D01*
X163257Y143917D01*
X163324Y143941D01*
X163390Y143969D01*
X163454Y144000D01*
X163517Y144035D01*
X163577Y144073D01*
X163636Y144114D01*
X163692Y144158D01*
X163746Y144205D01*
X163797Y144254D01*
X163845Y144307D01*
X163891Y144362D01*
X163933Y144419D01*
X163973Y144479D01*
X164009Y144540D01*
X164042Y144604D01*
X164071Y144669D01*
X164097Y144735D01*
X164120Y144803D01*
X164139Y144872D01*
X164154Y144942D01*
X164165Y145012D01*
X164173Y145083D01*
X164177Y145154D01*
X164177Y145226D01*
X164173Y145297D01*
X164165Y145368D01*
X164154Y145438D01*
X164139Y145508D01*
X164120Y145577D01*
X164097Y145645D01*
X164071Y145711D01*
X164042Y145776D01*
X164009Y145840D01*
X163973Y145901D01*
X163933Y145961D01*
X163891Y146018D01*
X163845Y146073D01*
X163797Y146126D01*
X163746Y146175D01*
X163692Y146222D01*
X163636Y146266D01*
X163577Y146307D01*
X163517Y146345D01*
X163454Y146380D01*
X163390Y146411D01*
X163324Y146439D01*
X163257Y146463D01*
X163189Y146484D01*
X163119Y146501D01*
X163049Y146514D01*
X162979Y146523D01*
X162907Y146529D01*
X162836Y146531D01*
X160691Y146531D01*
X160620Y146529D01*
X160548Y146523D01*
X160478Y146514D01*
X160408Y146501D01*
X160338Y146484D01*
X160270Y146463D01*
X160203Y146439D01*
X160137Y146411D01*
X160073Y146380D01*
X160010Y146345D01*
X159950Y146307D01*
X159891Y146266D01*
X159835Y146222D01*
X159781Y146175D01*
X159730Y146126D01*
X159682Y146073D01*
X159636Y146018D01*
X159594Y145961D01*
X159554Y145901D01*
X159518Y145840D01*
X159485Y145776D01*
X159456Y145711D01*
X159430Y145645D01*
X159407Y145577D01*
X159388Y145508D01*
X159373Y145438D01*
X159362Y145368D01*
X159354Y145297D01*
X159350Y145226D01*
X159350Y145154D01*
X159354Y145083D01*
X159362Y145012D01*
X159373Y144942D01*
X159388Y144872D01*
X159407Y144803D01*
X159430Y144735D01*
X159456Y144669D01*
X159485Y144604D01*
X159518Y144540D01*
X159554Y144479D01*
X159594Y144419D01*
X159636Y144362D01*
X159682Y144307D01*
X159730Y144254D01*
X159781Y144205D01*
X159835Y144158D01*
X159891Y144114D01*
X159950Y144073D01*
X160010Y144035D01*
X160073Y144000D01*
X160137Y143969D01*
X160203Y143941D01*
X160270Y143917D01*
X160338Y143896D01*
X160408Y143879D01*
X160478Y143866D01*
X160548Y143857D01*
X160620Y143851D01*
X160691Y143849D01*
X160423Y145994D02*
X159350Y147067D01*
X162970Y151623D02*
X163038Y151621D01*
X163105Y151615D01*
X163172Y151606D01*
X163239Y151593D01*
X163304Y151576D01*
X163369Y151555D01*
X163432Y151531D01*
X163494Y151503D01*
X163554Y151472D01*
X163612Y151438D01*
X163668Y151400D01*
X163723Y151360D01*
X163774Y151316D01*
X163823Y151269D01*
X163870Y151220D01*
X163914Y151169D01*
X163954Y151114D01*
X163992Y151058D01*
X164026Y151000D01*
X164057Y150940D01*
X164085Y150878D01*
X164109Y150815D01*
X164130Y150750D01*
X164147Y150685D01*
X164160Y150618D01*
X164169Y150551D01*
X164175Y150484D01*
X164177Y150416D01*
X164176Y150416D02*
X164174Y150338D01*
X164168Y150260D01*
X164158Y150183D01*
X164145Y150106D01*
X164127Y150030D01*
X164106Y149955D01*
X164081Y149881D01*
X164052Y149809D01*
X164020Y149738D01*
X163984Y149669D01*
X163945Y149601D01*
X163902Y149536D01*
X163856Y149473D01*
X163807Y149412D01*
X163755Y149354D01*
X163700Y149299D01*
X163643Y149246D01*
X163583Y149197D01*
X163520Y149150D01*
X163455Y149107D01*
X163389Y149067D01*
X163320Y149030D01*
X163249Y148997D01*
X163177Y148967D01*
X163104Y148941D01*
X162032Y151221D02*
X162081Y151270D01*
X162133Y151317D01*
X162188Y151360D01*
X162245Y151401D01*
X162304Y151439D01*
X162365Y151473D01*
X162428Y151504D01*
X162492Y151532D01*
X162558Y151556D01*
X162624Y151576D01*
X162692Y151593D01*
X162761Y151606D01*
X162830Y151615D01*
X162900Y151621D01*
X162970Y151623D01*
X162031Y151221D02*
X159350Y148942D01*
X159350Y151623D01*
D10*
X280879Y253156D02*
X286879Y253156D01*
X286879Y245156D01*
X264879Y253156D02*
X258879Y253156D01*
X258879Y245156D01*
D13*
X291364Y242270D02*
X293509Y242270D01*
X293509Y242269D02*
X293580Y242271D01*
X293652Y242277D01*
X293722Y242286D01*
X293792Y242299D01*
X293862Y242316D01*
X293930Y242337D01*
X293997Y242361D01*
X294063Y242389D01*
X294127Y242420D01*
X294190Y242455D01*
X294250Y242493D01*
X294309Y242534D01*
X294365Y242578D01*
X294419Y242625D01*
X294470Y242674D01*
X294518Y242727D01*
X294564Y242782D01*
X294606Y242839D01*
X294646Y242899D01*
X294682Y242960D01*
X294715Y243024D01*
X294744Y243089D01*
X294770Y243155D01*
X294793Y243223D01*
X294812Y243292D01*
X294827Y243362D01*
X294838Y243432D01*
X294846Y243503D01*
X294850Y243574D01*
X294850Y243646D01*
X294846Y243717D01*
X294838Y243788D01*
X294827Y243858D01*
X294812Y243928D01*
X294793Y243997D01*
X294770Y244065D01*
X294744Y244131D01*
X294715Y244196D01*
X294682Y244260D01*
X294646Y244321D01*
X294606Y244381D01*
X294564Y244438D01*
X294518Y244493D01*
X294470Y244546D01*
X294419Y244595D01*
X294365Y244642D01*
X294309Y244686D01*
X294250Y244727D01*
X294190Y244765D01*
X294127Y244800D01*
X294063Y244831D01*
X293997Y244859D01*
X293930Y244883D01*
X293862Y244904D01*
X293792Y244921D01*
X293722Y244934D01*
X293652Y244943D01*
X293580Y244949D01*
X293509Y244951D01*
X291364Y244951D01*
X291293Y244949D01*
X291221Y244943D01*
X291151Y244934D01*
X291081Y244921D01*
X291011Y244904D01*
X290943Y244883D01*
X290876Y244859D01*
X290810Y244831D01*
X290746Y244800D01*
X290683Y244765D01*
X290623Y244727D01*
X290564Y244686D01*
X290508Y244642D01*
X290454Y244595D01*
X290403Y244546D01*
X290355Y244493D01*
X290309Y244438D01*
X290267Y244381D01*
X290227Y244321D01*
X290191Y244260D01*
X290158Y244196D01*
X290129Y244131D01*
X290103Y244065D01*
X290080Y243997D01*
X290061Y243928D01*
X290046Y243858D01*
X290035Y243788D01*
X290027Y243717D01*
X290023Y243646D01*
X290023Y243574D01*
X290027Y243503D01*
X290035Y243432D01*
X290046Y243362D01*
X290061Y243292D01*
X290080Y243223D01*
X290103Y243155D01*
X290129Y243089D01*
X290158Y243024D01*
X290191Y242960D01*
X290227Y242899D01*
X290267Y242839D01*
X290309Y242782D01*
X290355Y242727D01*
X290403Y242674D01*
X290454Y242625D01*
X290508Y242578D01*
X290564Y242534D01*
X290623Y242493D01*
X290683Y242455D01*
X290746Y242420D01*
X290810Y242389D01*
X290876Y242361D01*
X290943Y242337D01*
X291011Y242316D01*
X291081Y242299D01*
X291151Y242286D01*
X291221Y242277D01*
X291293Y242271D01*
X291364Y242269D01*
X291096Y244414D02*
X290024Y245487D01*
X290024Y247362D02*
X290024Y248702D01*
X290023Y248702D02*
X290025Y248773D01*
X290031Y248845D01*
X290040Y248915D01*
X290053Y248985D01*
X290070Y249055D01*
X290091Y249123D01*
X290115Y249190D01*
X290143Y249256D01*
X290174Y249320D01*
X290209Y249383D01*
X290247Y249443D01*
X290288Y249502D01*
X290332Y249558D01*
X290379Y249612D01*
X290428Y249663D01*
X290481Y249711D01*
X290536Y249757D01*
X290593Y249799D01*
X290653Y249839D01*
X290714Y249875D01*
X290778Y249908D01*
X290843Y249937D01*
X290909Y249963D01*
X290977Y249986D01*
X291046Y250005D01*
X291116Y250020D01*
X291186Y250031D01*
X291257Y250039D01*
X291328Y250043D01*
X291400Y250043D01*
X291471Y250039D01*
X291542Y250031D01*
X291612Y250020D01*
X291682Y250005D01*
X291751Y249986D01*
X291819Y249963D01*
X291885Y249937D01*
X291950Y249908D01*
X292014Y249875D01*
X292075Y249839D01*
X292135Y249799D01*
X292192Y249757D01*
X292247Y249711D01*
X292300Y249663D01*
X292349Y249612D01*
X292396Y249558D01*
X292440Y249502D01*
X292481Y249443D01*
X292519Y249383D01*
X292554Y249320D01*
X292585Y249256D01*
X292613Y249190D01*
X292637Y249123D01*
X292658Y249055D01*
X292675Y248985D01*
X292688Y248915D01*
X292697Y248845D01*
X292703Y248773D01*
X292705Y248702D01*
X294850Y248970D02*
X294850Y247362D01*
X294849Y248970D02*
X294847Y249035D01*
X294841Y249099D01*
X294831Y249163D01*
X294818Y249227D01*
X294800Y249289D01*
X294779Y249350D01*
X294755Y249410D01*
X294726Y249468D01*
X294694Y249525D01*
X294659Y249579D01*
X294621Y249631D01*
X294579Y249681D01*
X294535Y249728D01*
X294488Y249772D01*
X294438Y249814D01*
X294386Y249852D01*
X294332Y249887D01*
X294275Y249919D01*
X294217Y249948D01*
X294157Y249972D01*
X294096Y249993D01*
X294034Y250011D01*
X293970Y250024D01*
X293906Y250034D01*
X293842Y250040D01*
X293777Y250042D01*
X293712Y250040D01*
X293648Y250034D01*
X293584Y250024D01*
X293520Y250011D01*
X293458Y249993D01*
X293397Y249972D01*
X293337Y249948D01*
X293279Y249919D01*
X293222Y249887D01*
X293168Y249852D01*
X293116Y249814D01*
X293066Y249772D01*
X293019Y249728D01*
X292975Y249681D01*
X292933Y249631D01*
X292895Y249579D01*
X292860Y249525D01*
X292828Y249468D01*
X292799Y249410D01*
X292775Y249350D01*
X292754Y249289D01*
X292736Y249227D01*
X292723Y249163D01*
X292713Y249099D01*
X292707Y249035D01*
X292705Y248970D01*
X292705Y247898D01*
D10*
X285892Y153554D02*
X279892Y153554D01*
X285892Y153554D02*
X285892Y145554D01*
X263892Y153554D02*
X257892Y153554D01*
X257892Y145554D01*
D13*
X290378Y142667D02*
X292523Y142667D01*
X292594Y142669D01*
X292666Y142675D01*
X292736Y142684D01*
X292806Y142697D01*
X292876Y142714D01*
X292944Y142735D01*
X293011Y142759D01*
X293077Y142787D01*
X293141Y142818D01*
X293204Y142853D01*
X293264Y142891D01*
X293323Y142932D01*
X293379Y142976D01*
X293433Y143023D01*
X293484Y143072D01*
X293532Y143125D01*
X293578Y143180D01*
X293620Y143237D01*
X293660Y143297D01*
X293696Y143358D01*
X293729Y143422D01*
X293758Y143487D01*
X293784Y143553D01*
X293807Y143621D01*
X293826Y143690D01*
X293841Y143760D01*
X293852Y143830D01*
X293860Y143901D01*
X293864Y143972D01*
X293864Y144044D01*
X293860Y144115D01*
X293852Y144186D01*
X293841Y144256D01*
X293826Y144326D01*
X293807Y144395D01*
X293784Y144463D01*
X293758Y144529D01*
X293729Y144594D01*
X293696Y144658D01*
X293660Y144719D01*
X293620Y144779D01*
X293578Y144836D01*
X293532Y144891D01*
X293484Y144944D01*
X293433Y144993D01*
X293379Y145040D01*
X293323Y145084D01*
X293264Y145125D01*
X293204Y145163D01*
X293141Y145198D01*
X293077Y145229D01*
X293011Y145257D01*
X292944Y145281D01*
X292876Y145302D01*
X292806Y145319D01*
X292736Y145332D01*
X292666Y145341D01*
X292594Y145347D01*
X292523Y145349D01*
X292523Y145348D02*
X290378Y145348D01*
X290378Y145349D02*
X290307Y145347D01*
X290235Y145341D01*
X290165Y145332D01*
X290095Y145319D01*
X290025Y145302D01*
X289957Y145281D01*
X289890Y145257D01*
X289824Y145229D01*
X289760Y145198D01*
X289697Y145163D01*
X289637Y145125D01*
X289578Y145084D01*
X289522Y145040D01*
X289468Y144993D01*
X289417Y144944D01*
X289369Y144891D01*
X289323Y144836D01*
X289281Y144779D01*
X289241Y144719D01*
X289205Y144658D01*
X289172Y144594D01*
X289143Y144529D01*
X289117Y144463D01*
X289094Y144395D01*
X289075Y144326D01*
X289060Y144256D01*
X289049Y144186D01*
X289041Y144115D01*
X289037Y144044D01*
X289037Y143972D01*
X289041Y143901D01*
X289049Y143830D01*
X289060Y143760D01*
X289075Y143690D01*
X289094Y143621D01*
X289117Y143553D01*
X289143Y143487D01*
X289172Y143422D01*
X289205Y143358D01*
X289241Y143297D01*
X289281Y143237D01*
X289323Y143180D01*
X289369Y143125D01*
X289417Y143072D01*
X289468Y143023D01*
X289522Y142976D01*
X289578Y142932D01*
X289637Y142891D01*
X289697Y142853D01*
X289760Y142818D01*
X289824Y142787D01*
X289890Y142759D01*
X289957Y142735D01*
X290025Y142714D01*
X290095Y142697D01*
X290165Y142684D01*
X290235Y142675D01*
X290307Y142669D01*
X290378Y142667D01*
X290110Y144812D02*
X289037Y145885D01*
X290110Y147759D02*
X293863Y148832D01*
X290110Y147759D02*
X290110Y150441D01*
X291182Y149636D02*
X289037Y149636D01*
X211594Y57838D02*
X206768Y57838D01*
X211594Y57838D02*
X211594Y59179D01*
X211592Y59250D01*
X211586Y59322D01*
X211577Y59392D01*
X211564Y59462D01*
X211547Y59532D01*
X211526Y59600D01*
X211502Y59667D01*
X211474Y59733D01*
X211443Y59797D01*
X211408Y59860D01*
X211370Y59920D01*
X211329Y59979D01*
X211285Y60035D01*
X211238Y60089D01*
X211189Y60140D01*
X211136Y60188D01*
X211081Y60234D01*
X211024Y60276D01*
X210964Y60316D01*
X210903Y60352D01*
X210839Y60385D01*
X210774Y60414D01*
X210708Y60440D01*
X210640Y60463D01*
X210571Y60482D01*
X210501Y60497D01*
X210431Y60508D01*
X210360Y60516D01*
X210289Y60520D01*
X210217Y60520D01*
X210146Y60516D01*
X210075Y60508D01*
X210005Y60497D01*
X209935Y60482D01*
X209866Y60463D01*
X209798Y60440D01*
X209732Y60414D01*
X209667Y60385D01*
X209603Y60352D01*
X209542Y60316D01*
X209482Y60276D01*
X209425Y60234D01*
X209370Y60188D01*
X209317Y60140D01*
X209268Y60089D01*
X209221Y60035D01*
X209177Y59979D01*
X209136Y59920D01*
X209098Y59860D01*
X209063Y59797D01*
X209032Y59733D01*
X209004Y59667D01*
X208980Y59600D01*
X208959Y59532D01*
X208942Y59462D01*
X208929Y59392D01*
X208920Y59322D01*
X208914Y59250D01*
X208912Y59179D01*
X208913Y59179D02*
X208913Y57838D01*
X208913Y59447D02*
X206768Y60519D01*
X210521Y63261D02*
X211594Y64601D01*
X206768Y64601D01*
X206768Y63261D02*
X206768Y65942D01*
X144556Y194932D02*
X144556Y199758D01*
X143216Y199758D01*
X143216Y199759D02*
X143145Y199757D01*
X143073Y199751D01*
X143003Y199742D01*
X142933Y199729D01*
X142863Y199712D01*
X142795Y199691D01*
X142728Y199667D01*
X142662Y199639D01*
X142598Y199608D01*
X142535Y199573D01*
X142475Y199535D01*
X142416Y199494D01*
X142360Y199450D01*
X142306Y199403D01*
X142255Y199354D01*
X142207Y199301D01*
X142161Y199246D01*
X142119Y199189D01*
X142079Y199129D01*
X142043Y199068D01*
X142010Y199004D01*
X141981Y198939D01*
X141955Y198873D01*
X141932Y198805D01*
X141913Y198736D01*
X141898Y198666D01*
X141887Y198596D01*
X141879Y198525D01*
X141875Y198454D01*
X141875Y198382D01*
X141879Y198311D01*
X141887Y198240D01*
X141898Y198170D01*
X141913Y198100D01*
X141932Y198031D01*
X141955Y197963D01*
X141981Y197897D01*
X142010Y197832D01*
X142043Y197768D01*
X142079Y197707D01*
X142119Y197647D01*
X142161Y197590D01*
X142207Y197535D01*
X142255Y197482D01*
X142306Y197433D01*
X142360Y197386D01*
X142416Y197342D01*
X142475Y197301D01*
X142535Y197263D01*
X142598Y197228D01*
X142662Y197197D01*
X142728Y197169D01*
X142795Y197145D01*
X142863Y197124D01*
X142933Y197107D01*
X143003Y197094D01*
X143073Y197085D01*
X143145Y197079D01*
X143216Y197077D01*
X144556Y197077D01*
X142948Y197077D02*
X141875Y194932D01*
X137659Y199759D02*
X137591Y199757D01*
X137524Y199751D01*
X137457Y199742D01*
X137390Y199729D01*
X137325Y199712D01*
X137260Y199691D01*
X137197Y199667D01*
X137135Y199639D01*
X137075Y199608D01*
X137017Y199574D01*
X136961Y199536D01*
X136906Y199496D01*
X136855Y199452D01*
X136806Y199405D01*
X136759Y199356D01*
X136715Y199305D01*
X136675Y199250D01*
X136637Y199194D01*
X136603Y199136D01*
X136572Y199076D01*
X136544Y199014D01*
X136520Y198951D01*
X136499Y198886D01*
X136482Y198821D01*
X136469Y198754D01*
X136460Y198687D01*
X136454Y198620D01*
X136452Y198552D01*
X137659Y199758D02*
X137737Y199756D01*
X137815Y199750D01*
X137892Y199740D01*
X137969Y199727D01*
X138045Y199709D01*
X138120Y199688D01*
X138194Y199663D01*
X138266Y199634D01*
X138337Y199602D01*
X138406Y199566D01*
X138474Y199527D01*
X138539Y199484D01*
X138602Y199438D01*
X138663Y199389D01*
X138721Y199337D01*
X138776Y199282D01*
X138829Y199225D01*
X138878Y199165D01*
X138925Y199102D01*
X138968Y199037D01*
X139008Y198971D01*
X139045Y198902D01*
X139078Y198831D01*
X139108Y198759D01*
X139134Y198685D01*
X136854Y197614D02*
X136805Y197663D01*
X136758Y197715D01*
X136715Y197770D01*
X136674Y197827D01*
X136636Y197886D01*
X136602Y197947D01*
X136571Y198010D01*
X136543Y198074D01*
X136519Y198140D01*
X136499Y198206D01*
X136482Y198274D01*
X136469Y198343D01*
X136460Y198412D01*
X136454Y198482D01*
X136452Y198552D01*
X136855Y197613D02*
X139134Y194932D01*
X136453Y194932D01*
X166709Y57859D02*
X171535Y57859D01*
X171535Y59199D01*
X171533Y59270D01*
X171527Y59342D01*
X171518Y59412D01*
X171505Y59482D01*
X171488Y59552D01*
X171467Y59620D01*
X171443Y59687D01*
X171415Y59753D01*
X171384Y59817D01*
X171349Y59880D01*
X171311Y59940D01*
X171270Y59999D01*
X171226Y60055D01*
X171179Y60109D01*
X171130Y60160D01*
X171077Y60208D01*
X171022Y60254D01*
X170965Y60296D01*
X170905Y60336D01*
X170844Y60372D01*
X170780Y60405D01*
X170715Y60434D01*
X170649Y60460D01*
X170581Y60483D01*
X170512Y60502D01*
X170442Y60517D01*
X170372Y60528D01*
X170301Y60536D01*
X170230Y60540D01*
X170158Y60540D01*
X170087Y60536D01*
X170016Y60528D01*
X169946Y60517D01*
X169876Y60502D01*
X169807Y60483D01*
X169739Y60460D01*
X169673Y60434D01*
X169608Y60405D01*
X169544Y60372D01*
X169483Y60336D01*
X169423Y60296D01*
X169366Y60254D01*
X169311Y60208D01*
X169258Y60160D01*
X169209Y60109D01*
X169162Y60055D01*
X169118Y59999D01*
X169077Y59940D01*
X169039Y59880D01*
X169004Y59817D01*
X168973Y59753D01*
X168945Y59687D01*
X168921Y59620D01*
X168900Y59552D01*
X168883Y59482D01*
X168870Y59412D01*
X168861Y59342D01*
X168855Y59270D01*
X168853Y59199D01*
X168854Y59199D02*
X168854Y57859D01*
X168854Y59467D02*
X166709Y60540D01*
X166709Y63281D02*
X166709Y64622D01*
X166708Y64622D02*
X166710Y64693D01*
X166716Y64765D01*
X166725Y64835D01*
X166738Y64905D01*
X166755Y64975D01*
X166776Y65043D01*
X166800Y65110D01*
X166828Y65176D01*
X166859Y65240D01*
X166894Y65303D01*
X166932Y65363D01*
X166973Y65422D01*
X167017Y65478D01*
X167064Y65532D01*
X167113Y65583D01*
X167166Y65631D01*
X167221Y65677D01*
X167278Y65719D01*
X167338Y65759D01*
X167399Y65795D01*
X167463Y65828D01*
X167528Y65857D01*
X167594Y65883D01*
X167662Y65906D01*
X167731Y65925D01*
X167801Y65940D01*
X167871Y65951D01*
X167942Y65959D01*
X168013Y65963D01*
X168085Y65963D01*
X168156Y65959D01*
X168227Y65951D01*
X168297Y65940D01*
X168367Y65925D01*
X168436Y65906D01*
X168504Y65883D01*
X168570Y65857D01*
X168635Y65828D01*
X168699Y65795D01*
X168760Y65759D01*
X168820Y65719D01*
X168877Y65677D01*
X168932Y65631D01*
X168985Y65583D01*
X169034Y65532D01*
X169081Y65478D01*
X169125Y65422D01*
X169166Y65363D01*
X169204Y65303D01*
X169239Y65240D01*
X169270Y65176D01*
X169298Y65110D01*
X169322Y65043D01*
X169343Y64975D01*
X169360Y64905D01*
X169373Y64835D01*
X169382Y64765D01*
X169388Y64693D01*
X169390Y64622D01*
X171535Y64890D02*
X171535Y63281D01*
X171534Y64890D02*
X171532Y64955D01*
X171526Y65019D01*
X171516Y65083D01*
X171503Y65147D01*
X171485Y65209D01*
X171464Y65270D01*
X171440Y65330D01*
X171411Y65388D01*
X171379Y65445D01*
X171344Y65499D01*
X171306Y65551D01*
X171264Y65601D01*
X171220Y65648D01*
X171173Y65692D01*
X171123Y65734D01*
X171071Y65772D01*
X171017Y65807D01*
X170960Y65839D01*
X170902Y65868D01*
X170842Y65892D01*
X170781Y65913D01*
X170719Y65931D01*
X170655Y65944D01*
X170591Y65954D01*
X170527Y65960D01*
X170462Y65962D01*
X170397Y65960D01*
X170333Y65954D01*
X170269Y65944D01*
X170205Y65931D01*
X170143Y65913D01*
X170082Y65892D01*
X170022Y65868D01*
X169964Y65839D01*
X169907Y65807D01*
X169853Y65772D01*
X169801Y65734D01*
X169751Y65692D01*
X169704Y65648D01*
X169660Y65601D01*
X169618Y65551D01*
X169580Y65499D01*
X169545Y65445D01*
X169513Y65388D01*
X169484Y65330D01*
X169460Y65270D01*
X169439Y65209D01*
X169421Y65147D01*
X169408Y65083D01*
X169398Y65019D01*
X169392Y64955D01*
X169390Y64890D01*
X169390Y63818D01*
X146707Y95506D02*
X146707Y100332D01*
X145367Y100332D01*
X145296Y100330D01*
X145224Y100324D01*
X145154Y100315D01*
X145084Y100302D01*
X145014Y100285D01*
X144946Y100264D01*
X144879Y100240D01*
X144813Y100212D01*
X144749Y100181D01*
X144686Y100146D01*
X144626Y100108D01*
X144567Y100067D01*
X144511Y100023D01*
X144457Y99976D01*
X144406Y99927D01*
X144358Y99874D01*
X144312Y99819D01*
X144270Y99762D01*
X144230Y99702D01*
X144194Y99641D01*
X144161Y99577D01*
X144132Y99512D01*
X144106Y99446D01*
X144083Y99378D01*
X144064Y99309D01*
X144049Y99239D01*
X144038Y99169D01*
X144030Y99098D01*
X144026Y99027D01*
X144026Y98955D01*
X144030Y98884D01*
X144038Y98813D01*
X144049Y98743D01*
X144064Y98673D01*
X144083Y98604D01*
X144106Y98536D01*
X144132Y98470D01*
X144161Y98405D01*
X144194Y98341D01*
X144230Y98280D01*
X144270Y98220D01*
X144312Y98163D01*
X144358Y98108D01*
X144406Y98055D01*
X144457Y98006D01*
X144511Y97959D01*
X144567Y97915D01*
X144626Y97874D01*
X144686Y97836D01*
X144749Y97801D01*
X144813Y97770D01*
X144879Y97742D01*
X144946Y97718D01*
X145014Y97697D01*
X145084Y97680D01*
X145154Y97667D01*
X145224Y97658D01*
X145296Y97652D01*
X145367Y97650D01*
X145367Y97651D02*
X146707Y97651D01*
X145098Y97651D02*
X144026Y95506D01*
X141284Y96578D02*
X140212Y100332D01*
X141284Y96578D02*
X138603Y96578D01*
X139408Y95506D02*
X139408Y97651D01*
X246633Y58107D02*
X251459Y58107D01*
X251459Y59447D01*
X251457Y59518D01*
X251451Y59590D01*
X251442Y59660D01*
X251429Y59730D01*
X251412Y59800D01*
X251391Y59868D01*
X251367Y59935D01*
X251339Y60001D01*
X251308Y60065D01*
X251273Y60128D01*
X251235Y60188D01*
X251194Y60247D01*
X251150Y60303D01*
X251103Y60357D01*
X251054Y60408D01*
X251001Y60456D01*
X250946Y60502D01*
X250889Y60544D01*
X250829Y60584D01*
X250768Y60620D01*
X250704Y60653D01*
X250639Y60682D01*
X250573Y60708D01*
X250505Y60731D01*
X250436Y60750D01*
X250366Y60765D01*
X250296Y60776D01*
X250225Y60784D01*
X250154Y60788D01*
X250082Y60788D01*
X250011Y60784D01*
X249940Y60776D01*
X249870Y60765D01*
X249800Y60750D01*
X249731Y60731D01*
X249663Y60708D01*
X249597Y60682D01*
X249532Y60653D01*
X249468Y60620D01*
X249407Y60584D01*
X249347Y60544D01*
X249290Y60502D01*
X249235Y60456D01*
X249182Y60408D01*
X249133Y60357D01*
X249086Y60303D01*
X249042Y60247D01*
X249001Y60188D01*
X248963Y60128D01*
X248928Y60065D01*
X248897Y60001D01*
X248869Y59935D01*
X248845Y59868D01*
X248824Y59800D01*
X248807Y59730D01*
X248794Y59660D01*
X248785Y59590D01*
X248779Y59518D01*
X248777Y59447D01*
X248778Y59447D02*
X248778Y58107D01*
X248778Y59716D02*
X246633Y60788D01*
X246633Y63530D02*
X246633Y65138D01*
X246635Y65203D01*
X246641Y65267D01*
X246651Y65331D01*
X246664Y65395D01*
X246682Y65457D01*
X246703Y65518D01*
X246727Y65578D01*
X246756Y65636D01*
X246788Y65693D01*
X246823Y65747D01*
X246861Y65799D01*
X246903Y65849D01*
X246947Y65896D01*
X246994Y65940D01*
X247044Y65982D01*
X247096Y66020D01*
X247150Y66055D01*
X247207Y66087D01*
X247265Y66116D01*
X247325Y66140D01*
X247386Y66161D01*
X247448Y66179D01*
X247512Y66192D01*
X247576Y66202D01*
X247640Y66208D01*
X247705Y66210D01*
X247705Y66211D02*
X248242Y66211D01*
X248242Y66210D02*
X248307Y66208D01*
X248371Y66202D01*
X248435Y66192D01*
X248499Y66179D01*
X248561Y66161D01*
X248622Y66140D01*
X248682Y66116D01*
X248740Y66087D01*
X248797Y66055D01*
X248851Y66020D01*
X248903Y65982D01*
X248953Y65940D01*
X249000Y65896D01*
X249044Y65849D01*
X249086Y65799D01*
X249124Y65747D01*
X249159Y65693D01*
X249191Y65636D01*
X249220Y65578D01*
X249244Y65518D01*
X249265Y65457D01*
X249283Y65395D01*
X249296Y65331D01*
X249306Y65267D01*
X249312Y65203D01*
X249314Y65138D01*
X249314Y63530D01*
X251459Y63530D01*
X251459Y66211D01*
X276229Y193640D02*
X276229Y198466D01*
X274889Y198466D01*
X274889Y198467D02*
X274818Y198465D01*
X274746Y198459D01*
X274676Y198450D01*
X274606Y198437D01*
X274536Y198420D01*
X274468Y198399D01*
X274401Y198375D01*
X274335Y198347D01*
X274271Y198316D01*
X274208Y198281D01*
X274148Y198243D01*
X274089Y198202D01*
X274033Y198158D01*
X273979Y198111D01*
X273928Y198062D01*
X273880Y198009D01*
X273834Y197954D01*
X273792Y197897D01*
X273752Y197837D01*
X273716Y197776D01*
X273683Y197712D01*
X273654Y197647D01*
X273628Y197581D01*
X273605Y197513D01*
X273586Y197444D01*
X273571Y197374D01*
X273560Y197304D01*
X273552Y197233D01*
X273548Y197162D01*
X273548Y197090D01*
X273552Y197019D01*
X273560Y196948D01*
X273571Y196878D01*
X273586Y196808D01*
X273605Y196739D01*
X273628Y196671D01*
X273654Y196605D01*
X273683Y196540D01*
X273716Y196476D01*
X273752Y196415D01*
X273792Y196355D01*
X273834Y196298D01*
X273880Y196243D01*
X273928Y196190D01*
X273979Y196141D01*
X274033Y196094D01*
X274089Y196050D01*
X274148Y196009D01*
X274208Y195971D01*
X274271Y195936D01*
X274335Y195905D01*
X274401Y195877D01*
X274468Y195853D01*
X274536Y195832D01*
X274606Y195815D01*
X274676Y195802D01*
X274746Y195793D01*
X274818Y195787D01*
X274889Y195785D01*
X276229Y195785D01*
X274621Y195785D02*
X273548Y193640D01*
X270807Y196321D02*
X269198Y196321D01*
X269133Y196319D01*
X269069Y196313D01*
X269005Y196303D01*
X268941Y196290D01*
X268879Y196272D01*
X268818Y196251D01*
X268758Y196227D01*
X268700Y196198D01*
X268643Y196166D01*
X268589Y196131D01*
X268537Y196093D01*
X268487Y196051D01*
X268440Y196007D01*
X268396Y195960D01*
X268354Y195910D01*
X268316Y195858D01*
X268281Y195804D01*
X268249Y195747D01*
X268220Y195689D01*
X268196Y195629D01*
X268175Y195568D01*
X268157Y195506D01*
X268144Y195442D01*
X268134Y195378D01*
X268128Y195314D01*
X268126Y195249D01*
X268126Y194981D01*
X268125Y194981D02*
X268127Y194910D01*
X268133Y194838D01*
X268142Y194768D01*
X268155Y194698D01*
X268172Y194628D01*
X268193Y194560D01*
X268217Y194493D01*
X268245Y194427D01*
X268276Y194363D01*
X268311Y194300D01*
X268349Y194240D01*
X268390Y194181D01*
X268434Y194125D01*
X268481Y194071D01*
X268530Y194020D01*
X268583Y193972D01*
X268638Y193926D01*
X268695Y193884D01*
X268755Y193844D01*
X268816Y193808D01*
X268880Y193775D01*
X268945Y193746D01*
X269011Y193720D01*
X269079Y193697D01*
X269148Y193678D01*
X269218Y193663D01*
X269288Y193652D01*
X269359Y193644D01*
X269430Y193640D01*
X269502Y193640D01*
X269573Y193644D01*
X269644Y193652D01*
X269714Y193663D01*
X269784Y193678D01*
X269853Y193697D01*
X269921Y193720D01*
X269987Y193746D01*
X270052Y193775D01*
X270116Y193808D01*
X270177Y193844D01*
X270237Y193884D01*
X270294Y193926D01*
X270349Y193972D01*
X270402Y194020D01*
X270451Y194071D01*
X270498Y194125D01*
X270542Y194181D01*
X270583Y194240D01*
X270621Y194300D01*
X270656Y194363D01*
X270687Y194427D01*
X270715Y194493D01*
X270739Y194560D01*
X270760Y194628D01*
X270777Y194698D01*
X270790Y194768D01*
X270799Y194838D01*
X270805Y194910D01*
X270807Y194981D01*
X270807Y196321D01*
X270805Y196412D01*
X270799Y196503D01*
X270790Y196593D01*
X270776Y196684D01*
X270759Y196773D01*
X270738Y196861D01*
X270713Y196949D01*
X270684Y197036D01*
X270652Y197121D01*
X270617Y197205D01*
X270577Y197287D01*
X270535Y197367D01*
X270489Y197446D01*
X270439Y197522D01*
X270387Y197596D01*
X270331Y197669D01*
X270272Y197738D01*
X270211Y197805D01*
X270146Y197870D01*
X270079Y197931D01*
X270010Y197990D01*
X269937Y198046D01*
X269863Y198098D01*
X269787Y198148D01*
X269708Y198194D01*
X269628Y198236D01*
X269546Y198276D01*
X269462Y198311D01*
X269377Y198343D01*
X269290Y198372D01*
X269202Y198397D01*
X269114Y198418D01*
X269025Y198435D01*
X268934Y198449D01*
X268844Y198458D01*
X268753Y198464D01*
X268662Y198466D01*
X306702Y57935D02*
X311528Y57935D01*
X311528Y59276D01*
X311529Y59276D02*
X311527Y59347D01*
X311521Y59419D01*
X311512Y59489D01*
X311499Y59559D01*
X311482Y59629D01*
X311461Y59697D01*
X311437Y59764D01*
X311409Y59830D01*
X311378Y59894D01*
X311343Y59957D01*
X311305Y60017D01*
X311264Y60076D01*
X311220Y60132D01*
X311173Y60186D01*
X311124Y60237D01*
X311071Y60285D01*
X311016Y60331D01*
X310959Y60373D01*
X310899Y60413D01*
X310838Y60449D01*
X310774Y60482D01*
X310709Y60511D01*
X310643Y60537D01*
X310575Y60560D01*
X310506Y60579D01*
X310436Y60594D01*
X310366Y60605D01*
X310295Y60613D01*
X310224Y60617D01*
X310152Y60617D01*
X310081Y60613D01*
X310010Y60605D01*
X309940Y60594D01*
X309870Y60579D01*
X309801Y60560D01*
X309733Y60537D01*
X309667Y60511D01*
X309602Y60482D01*
X309538Y60449D01*
X309477Y60413D01*
X309417Y60373D01*
X309360Y60331D01*
X309305Y60285D01*
X309252Y60237D01*
X309203Y60186D01*
X309156Y60132D01*
X309112Y60076D01*
X309071Y60017D01*
X309033Y59957D01*
X308998Y59894D01*
X308967Y59830D01*
X308939Y59764D01*
X308915Y59697D01*
X308894Y59629D01*
X308877Y59559D01*
X308864Y59489D01*
X308855Y59419D01*
X308849Y59347D01*
X308847Y59276D01*
X308847Y57935D01*
X308847Y59544D02*
X306702Y60617D01*
X310992Y63358D02*
X311528Y63358D01*
X311528Y66039D01*
X306702Y64699D01*
X276298Y95149D02*
X276298Y99975D01*
X274958Y99975D01*
X274958Y99976D02*
X274887Y99974D01*
X274815Y99968D01*
X274745Y99959D01*
X274675Y99946D01*
X274605Y99929D01*
X274537Y99908D01*
X274470Y99884D01*
X274404Y99856D01*
X274340Y99825D01*
X274277Y99790D01*
X274217Y99752D01*
X274158Y99711D01*
X274102Y99667D01*
X274048Y99620D01*
X273997Y99571D01*
X273949Y99518D01*
X273903Y99463D01*
X273861Y99406D01*
X273821Y99346D01*
X273785Y99285D01*
X273752Y99221D01*
X273723Y99156D01*
X273697Y99090D01*
X273674Y99022D01*
X273655Y98953D01*
X273640Y98883D01*
X273629Y98813D01*
X273621Y98742D01*
X273617Y98671D01*
X273617Y98599D01*
X273621Y98528D01*
X273629Y98457D01*
X273640Y98387D01*
X273655Y98317D01*
X273674Y98248D01*
X273697Y98180D01*
X273723Y98114D01*
X273752Y98049D01*
X273785Y97985D01*
X273821Y97924D01*
X273861Y97864D01*
X273903Y97807D01*
X273949Y97752D01*
X273997Y97699D01*
X274048Y97650D01*
X274102Y97603D01*
X274158Y97559D01*
X274217Y97518D01*
X274277Y97480D01*
X274340Y97445D01*
X274404Y97414D01*
X274470Y97386D01*
X274537Y97362D01*
X274605Y97341D01*
X274675Y97324D01*
X274745Y97311D01*
X274815Y97302D01*
X274887Y97296D01*
X274958Y97294D01*
X276298Y97294D01*
X274689Y97294D02*
X273617Y95149D01*
X270876Y96490D02*
X270874Y96561D01*
X270868Y96633D01*
X270859Y96703D01*
X270846Y96773D01*
X270829Y96843D01*
X270808Y96911D01*
X270784Y96978D01*
X270756Y97044D01*
X270725Y97108D01*
X270690Y97171D01*
X270652Y97231D01*
X270611Y97290D01*
X270567Y97346D01*
X270520Y97400D01*
X270471Y97451D01*
X270418Y97499D01*
X270363Y97545D01*
X270306Y97587D01*
X270246Y97627D01*
X270185Y97663D01*
X270121Y97696D01*
X270056Y97725D01*
X269990Y97751D01*
X269922Y97774D01*
X269853Y97793D01*
X269783Y97808D01*
X269713Y97819D01*
X269642Y97827D01*
X269571Y97831D01*
X269499Y97831D01*
X269428Y97827D01*
X269357Y97819D01*
X269287Y97808D01*
X269217Y97793D01*
X269148Y97774D01*
X269080Y97751D01*
X269014Y97725D01*
X268949Y97696D01*
X268885Y97663D01*
X268824Y97627D01*
X268764Y97587D01*
X268707Y97545D01*
X268652Y97499D01*
X268599Y97451D01*
X268550Y97400D01*
X268503Y97346D01*
X268459Y97290D01*
X268418Y97231D01*
X268380Y97171D01*
X268345Y97108D01*
X268314Y97044D01*
X268286Y96978D01*
X268262Y96911D01*
X268241Y96843D01*
X268224Y96773D01*
X268211Y96703D01*
X268202Y96633D01*
X268196Y96561D01*
X268194Y96490D01*
X268196Y96419D01*
X268202Y96347D01*
X268211Y96277D01*
X268224Y96207D01*
X268241Y96137D01*
X268262Y96069D01*
X268286Y96002D01*
X268314Y95936D01*
X268345Y95872D01*
X268380Y95809D01*
X268418Y95749D01*
X268459Y95690D01*
X268503Y95634D01*
X268550Y95580D01*
X268599Y95529D01*
X268652Y95481D01*
X268707Y95435D01*
X268764Y95393D01*
X268824Y95353D01*
X268885Y95317D01*
X268949Y95284D01*
X269014Y95255D01*
X269080Y95229D01*
X269148Y95206D01*
X269217Y95187D01*
X269287Y95172D01*
X269357Y95161D01*
X269428Y95153D01*
X269499Y95149D01*
X269571Y95149D01*
X269642Y95153D01*
X269713Y95161D01*
X269783Y95172D01*
X269853Y95187D01*
X269922Y95206D01*
X269990Y95229D01*
X270056Y95255D01*
X270121Y95284D01*
X270185Y95317D01*
X270246Y95353D01*
X270306Y95393D01*
X270363Y95435D01*
X270418Y95481D01*
X270471Y95529D01*
X270520Y95580D01*
X270567Y95634D01*
X270611Y95690D01*
X270652Y95749D01*
X270690Y95809D01*
X270725Y95872D01*
X270756Y95936D01*
X270784Y96002D01*
X270808Y96069D01*
X270829Y96137D01*
X270846Y96207D01*
X270859Y96277D01*
X270868Y96347D01*
X270874Y96419D01*
X270876Y96490D01*
X270607Y98903D02*
X270605Y98968D01*
X270599Y99032D01*
X270589Y99096D01*
X270576Y99160D01*
X270558Y99222D01*
X270537Y99283D01*
X270513Y99343D01*
X270484Y99401D01*
X270452Y99458D01*
X270417Y99512D01*
X270379Y99564D01*
X270337Y99614D01*
X270293Y99661D01*
X270246Y99705D01*
X270196Y99747D01*
X270144Y99785D01*
X270090Y99820D01*
X270033Y99852D01*
X269975Y99881D01*
X269915Y99905D01*
X269854Y99926D01*
X269792Y99944D01*
X269728Y99957D01*
X269664Y99967D01*
X269600Y99973D01*
X269535Y99975D01*
X269470Y99973D01*
X269406Y99967D01*
X269342Y99957D01*
X269278Y99944D01*
X269216Y99926D01*
X269155Y99905D01*
X269095Y99881D01*
X269037Y99852D01*
X268980Y99820D01*
X268926Y99785D01*
X268874Y99747D01*
X268824Y99705D01*
X268777Y99661D01*
X268733Y99614D01*
X268691Y99564D01*
X268653Y99512D01*
X268618Y99458D01*
X268586Y99401D01*
X268557Y99343D01*
X268533Y99283D01*
X268512Y99222D01*
X268494Y99160D01*
X268481Y99096D01*
X268471Y99032D01*
X268465Y98968D01*
X268463Y98903D01*
X268465Y98838D01*
X268471Y98774D01*
X268481Y98710D01*
X268494Y98646D01*
X268512Y98584D01*
X268533Y98523D01*
X268557Y98463D01*
X268586Y98405D01*
X268618Y98348D01*
X268653Y98294D01*
X268691Y98242D01*
X268733Y98192D01*
X268777Y98145D01*
X268824Y98101D01*
X268874Y98059D01*
X268926Y98021D01*
X268980Y97986D01*
X269037Y97954D01*
X269095Y97925D01*
X269155Y97901D01*
X269216Y97880D01*
X269278Y97862D01*
X269342Y97849D01*
X269406Y97839D01*
X269470Y97833D01*
X269535Y97831D01*
X269600Y97833D01*
X269664Y97839D01*
X269728Y97849D01*
X269792Y97862D01*
X269854Y97880D01*
X269915Y97901D01*
X269975Y97925D01*
X270033Y97954D01*
X270090Y97986D01*
X270144Y98021D01*
X270196Y98059D01*
X270246Y98101D01*
X270293Y98145D01*
X270337Y98192D01*
X270379Y98242D01*
X270417Y98294D01*
X270452Y98348D01*
X270484Y98405D01*
X270513Y98463D01*
X270537Y98523D01*
X270558Y98584D01*
X270576Y98646D01*
X270589Y98710D01*
X270599Y98774D01*
X270605Y98838D01*
X270607Y98903D01*
M02*
