G04 EAGLE Gerber RS-274X export*
G75*
%MOMM*%
%FSLAX34Y34*%
%LPD*%
%INSoldermask Bottom*%
%IPPOS*%
%AMOC8*
5,1,8,0,0,1.08239X$1,22.5*%
G01*
%ADD10R,2.603200X2.003200*%
%ADD11C,1.473200*%
%ADD12C,1.727200*%
%ADD13R,1.003200X1.103200*%
%ADD14R,2.003200X1.803200*%
%ADD15R,1.803200X2.003200*%
%ADD16R,1.703200X1.703200*%


D10*
X96346Y212904D03*
X96346Y253404D03*
X96316Y112747D03*
X96316Y153247D03*
X316234Y212618D03*
X316234Y253118D03*
X313705Y113318D03*
X313705Y153818D03*
D11*
X204725Y17668D03*
X174771Y17811D03*
X234958Y17557D03*
X264813Y17704D03*
X125156Y18944D03*
D12*
X71563Y245227D02*
X56323Y245227D01*
X56323Y219827D02*
X71563Y219827D01*
X71458Y145250D02*
X56218Y145250D01*
X56218Y119850D02*
X71458Y119850D01*
X336227Y245219D02*
X351467Y245219D01*
X351467Y219819D02*
X336227Y219819D01*
X336305Y145252D02*
X351545Y145252D01*
X351545Y119852D02*
X336305Y119852D01*
D13*
X150338Y238072D03*
X131338Y238072D03*
X140838Y259072D03*
X151705Y137736D03*
X132705Y137736D03*
X142205Y158736D03*
X282379Y236156D03*
X263379Y236156D03*
X272879Y257156D03*
X281392Y136554D03*
X262392Y136554D03*
X271892Y157554D03*
D14*
X194703Y47890D03*
X194703Y75890D03*
D15*
X126505Y211823D03*
X154505Y211823D03*
D14*
X154644Y47911D03*
X154644Y75911D03*
D15*
X128655Y112397D03*
X156655Y112397D03*
D14*
X234568Y48159D03*
X234568Y76159D03*
D15*
X258177Y210531D03*
X286177Y210531D03*
D14*
X294637Y47987D03*
X294637Y75987D03*
D15*
X258246Y112040D03*
X286246Y112040D03*
D11*
X94385Y18405D03*
D12*
X192300Y325670D02*
X192300Y340910D01*
X217700Y340910D02*
X217700Y325670D01*
D16*
X126532Y191267D03*
X128830Y91618D03*
X237226Y195371D03*
X258315Y91484D03*
M02*
