M48
;GenerationSoftware,Autodesk,EAGLE,9.6.2*%
;CreationDate,2022-08-10T21:02:48Z*%
FMAT,2
ICI,OFF
METRIC,TZ,000.000
T3C0.813
T2C1.000
T1C1.016
%
G90
M71
T1
X-22860Y31750
X-41910Y22860
X-41910Y20320
X-6350Y20320
X-41910Y7620
X-41910Y5080
X-6350Y5080
X-6350Y7620
X-17780Y31750
X-20320Y31750
X-6350Y22860
X-25400Y31750
X-27940Y31750
X-30480Y31750
X-38100Y34290
X-35560Y34290
T2
X-19050Y13970
X-26670Y19050
X-26670Y16510
X-30480Y27940
X-30480Y25400
X-26670Y13970
X-19050Y19050
X-19050Y16510
T3
X-38100Y17780
X-38100Y2540
X-38100Y10160
X-10160Y2540
X-10160Y10160
X-10160Y25400
X-10160Y17780
X-38100Y25400
X-13970Y24130
X-13970Y19050
X-13970Y21590
X-13970Y3810
X-13970Y8890
X-13970Y6350
X-34290Y3810
X-34290Y8890
X-34290Y6350
X-34290Y24130
X-34290Y19050
X-34290Y21590
M30