G04 EAGLE Gerber RS-274X export*
G75*
%MOMM*%
%FSLAX34Y34*%
%LPD*%
%INSilkscreen Bottom*%
%IPPOS*%
%AMOC8*
5,1,8,0,0,1.08239X$1,22.5*%
G01*
%ADD10C,0.101600*%


D10*
X202692Y229362D02*
X202692Y238252D01*
X200223Y238252D01*
X200125Y238250D01*
X200027Y238244D01*
X199929Y238234D01*
X199832Y238221D01*
X199735Y238203D01*
X199639Y238182D01*
X199545Y238157D01*
X199451Y238128D01*
X199358Y238096D01*
X199267Y238059D01*
X199177Y238020D01*
X199089Y237976D01*
X199003Y237929D01*
X198918Y237879D01*
X198836Y237826D01*
X198756Y237769D01*
X198678Y237709D01*
X198603Y237646D01*
X198530Y237580D01*
X198460Y237511D01*
X198393Y237440D01*
X198328Y237366D01*
X198267Y237289D01*
X198208Y237210D01*
X198153Y237129D01*
X198101Y237046D01*
X198053Y236960D01*
X198008Y236873D01*
X197966Y236784D01*
X197928Y236694D01*
X197894Y236602D01*
X197863Y236509D01*
X197836Y236414D01*
X197813Y236319D01*
X197793Y236222D01*
X197778Y236126D01*
X197766Y236028D01*
X197758Y235930D01*
X197754Y235832D01*
X197754Y235734D01*
X197758Y235636D01*
X197766Y235538D01*
X197778Y235440D01*
X197793Y235344D01*
X197813Y235247D01*
X197836Y235152D01*
X197863Y235057D01*
X197894Y234964D01*
X197928Y234872D01*
X197966Y234782D01*
X198008Y234693D01*
X198053Y234606D01*
X198101Y234520D01*
X198153Y234437D01*
X198208Y234356D01*
X198267Y234277D01*
X198328Y234200D01*
X198393Y234126D01*
X198460Y234055D01*
X198530Y233986D01*
X198603Y233920D01*
X198678Y233857D01*
X198756Y233797D01*
X198836Y233740D01*
X198918Y233687D01*
X199003Y233637D01*
X199089Y233590D01*
X199177Y233546D01*
X199267Y233507D01*
X199358Y233470D01*
X199451Y233438D01*
X199545Y233409D01*
X199639Y233384D01*
X199735Y233363D01*
X199832Y233345D01*
X199929Y233332D01*
X200027Y233322D01*
X200125Y233316D01*
X200223Y233314D01*
X200223Y233313D02*
X202692Y233313D01*
X199729Y233313D02*
X197753Y229362D01*
X193842Y236276D02*
X191373Y238252D01*
X191373Y229362D01*
X193842Y229362D02*
X188903Y229362D01*
X202692Y85852D02*
X202692Y76962D01*
X202692Y85852D02*
X200223Y85852D01*
X200125Y85850D01*
X200027Y85844D01*
X199929Y85834D01*
X199832Y85821D01*
X199735Y85803D01*
X199639Y85782D01*
X199545Y85757D01*
X199451Y85728D01*
X199358Y85696D01*
X199267Y85659D01*
X199177Y85620D01*
X199089Y85576D01*
X199003Y85529D01*
X198918Y85479D01*
X198836Y85426D01*
X198756Y85369D01*
X198678Y85309D01*
X198603Y85246D01*
X198530Y85180D01*
X198460Y85111D01*
X198393Y85040D01*
X198328Y84966D01*
X198267Y84889D01*
X198208Y84810D01*
X198153Y84729D01*
X198101Y84646D01*
X198053Y84560D01*
X198008Y84473D01*
X197966Y84384D01*
X197928Y84294D01*
X197894Y84202D01*
X197863Y84109D01*
X197836Y84014D01*
X197813Y83919D01*
X197793Y83822D01*
X197778Y83726D01*
X197766Y83628D01*
X197758Y83530D01*
X197754Y83432D01*
X197754Y83334D01*
X197758Y83236D01*
X197766Y83138D01*
X197778Y83040D01*
X197793Y82944D01*
X197813Y82847D01*
X197836Y82752D01*
X197863Y82657D01*
X197894Y82564D01*
X197928Y82472D01*
X197966Y82382D01*
X198008Y82293D01*
X198053Y82206D01*
X198101Y82120D01*
X198153Y82037D01*
X198208Y81956D01*
X198267Y81877D01*
X198328Y81800D01*
X198393Y81726D01*
X198460Y81655D01*
X198530Y81586D01*
X198603Y81520D01*
X198678Y81457D01*
X198756Y81397D01*
X198836Y81340D01*
X198918Y81287D01*
X199003Y81237D01*
X199089Y81190D01*
X199177Y81146D01*
X199267Y81107D01*
X199358Y81070D01*
X199451Y81038D01*
X199545Y81009D01*
X199639Y80984D01*
X199735Y80963D01*
X199832Y80945D01*
X199929Y80932D01*
X200027Y80922D01*
X200125Y80916D01*
X200223Y80914D01*
X200223Y80913D02*
X202692Y80913D01*
X199729Y80913D02*
X197753Y76962D01*
X188903Y83630D02*
X188905Y83722D01*
X188911Y83814D01*
X188920Y83905D01*
X188933Y83996D01*
X188950Y84086D01*
X188971Y84176D01*
X188995Y84264D01*
X189023Y84352D01*
X189055Y84438D01*
X189090Y84523D01*
X189129Y84606D01*
X189171Y84688D01*
X189216Y84768D01*
X189265Y84846D01*
X189317Y84922D01*
X189372Y84995D01*
X189430Y85067D01*
X189490Y85136D01*
X189554Y85202D01*
X189620Y85266D01*
X189689Y85326D01*
X189761Y85384D01*
X189834Y85439D01*
X189910Y85491D01*
X189988Y85540D01*
X190068Y85585D01*
X190150Y85627D01*
X190233Y85666D01*
X190318Y85701D01*
X190404Y85733D01*
X190492Y85761D01*
X190580Y85785D01*
X190670Y85806D01*
X190760Y85823D01*
X190851Y85836D01*
X190942Y85845D01*
X191034Y85851D01*
X191126Y85853D01*
X191126Y85852D02*
X191232Y85850D01*
X191337Y85844D01*
X191442Y85834D01*
X191547Y85821D01*
X191651Y85803D01*
X191754Y85782D01*
X191857Y85757D01*
X191959Y85728D01*
X192059Y85695D01*
X192158Y85659D01*
X192256Y85619D01*
X192352Y85575D01*
X192447Y85528D01*
X192539Y85478D01*
X192630Y85424D01*
X192719Y85366D01*
X192805Y85306D01*
X192889Y85242D01*
X192971Y85176D01*
X193051Y85106D01*
X193127Y85033D01*
X193201Y84958D01*
X193272Y84880D01*
X193340Y84799D01*
X193406Y84716D01*
X193468Y84630D01*
X193526Y84543D01*
X193582Y84453D01*
X193634Y84361D01*
X193683Y84267D01*
X193728Y84172D01*
X193770Y84075D01*
X193808Y83976D01*
X193842Y83877D01*
X189644Y81901D02*
X189575Y81970D01*
X189509Y82040D01*
X189446Y82114D01*
X189387Y82190D01*
X189330Y82268D01*
X189276Y82348D01*
X189226Y82431D01*
X189179Y82515D01*
X189136Y82602D01*
X189096Y82690D01*
X189060Y82779D01*
X189027Y82870D01*
X188998Y82962D01*
X188973Y83056D01*
X188952Y83150D01*
X188934Y83245D01*
X188921Y83341D01*
X188911Y83437D01*
X188905Y83533D01*
X188903Y83630D01*
X189644Y81901D02*
X193842Y76962D01*
X188903Y76962D01*
X293697Y50038D02*
X293697Y41148D01*
X293697Y50038D02*
X291227Y50038D01*
X291129Y50036D01*
X291031Y50030D01*
X290933Y50020D01*
X290836Y50007D01*
X290739Y49989D01*
X290643Y49968D01*
X290549Y49943D01*
X290455Y49914D01*
X290362Y49882D01*
X290271Y49845D01*
X290181Y49806D01*
X290093Y49762D01*
X290007Y49715D01*
X289922Y49665D01*
X289840Y49612D01*
X289760Y49555D01*
X289682Y49495D01*
X289607Y49432D01*
X289534Y49366D01*
X289464Y49297D01*
X289397Y49226D01*
X289332Y49152D01*
X289271Y49075D01*
X289212Y48996D01*
X289157Y48915D01*
X289105Y48832D01*
X289057Y48746D01*
X289012Y48659D01*
X288970Y48570D01*
X288932Y48480D01*
X288898Y48388D01*
X288867Y48295D01*
X288840Y48200D01*
X288817Y48105D01*
X288797Y48008D01*
X288782Y47912D01*
X288770Y47814D01*
X288762Y47716D01*
X288758Y47618D01*
X288758Y47520D01*
X288762Y47422D01*
X288770Y47324D01*
X288782Y47226D01*
X288797Y47130D01*
X288817Y47033D01*
X288840Y46938D01*
X288867Y46843D01*
X288898Y46750D01*
X288932Y46658D01*
X288970Y46568D01*
X289012Y46479D01*
X289057Y46392D01*
X289105Y46306D01*
X289157Y46223D01*
X289212Y46142D01*
X289271Y46063D01*
X289332Y45986D01*
X289397Y45912D01*
X289464Y45841D01*
X289534Y45772D01*
X289607Y45706D01*
X289682Y45643D01*
X289760Y45583D01*
X289840Y45526D01*
X289922Y45473D01*
X290007Y45423D01*
X290093Y45376D01*
X290181Y45332D01*
X290271Y45293D01*
X290362Y45256D01*
X290455Y45224D01*
X290549Y45195D01*
X290643Y45170D01*
X290739Y45149D01*
X290836Y45131D01*
X290933Y45118D01*
X291031Y45108D01*
X291129Y45102D01*
X291227Y45100D01*
X291227Y45099D02*
X293697Y45099D01*
X290733Y45099D02*
X288758Y41148D01*
X284847Y41148D02*
X282377Y41148D01*
X282279Y41150D01*
X282181Y41156D01*
X282083Y41166D01*
X281986Y41179D01*
X281889Y41197D01*
X281793Y41218D01*
X281699Y41243D01*
X281605Y41272D01*
X281512Y41304D01*
X281421Y41341D01*
X281331Y41380D01*
X281243Y41424D01*
X281157Y41471D01*
X281072Y41521D01*
X280990Y41574D01*
X280910Y41631D01*
X280832Y41691D01*
X280757Y41754D01*
X280684Y41820D01*
X280614Y41889D01*
X280547Y41960D01*
X280482Y42034D01*
X280421Y42111D01*
X280362Y42190D01*
X280307Y42271D01*
X280255Y42354D01*
X280207Y42440D01*
X280162Y42527D01*
X280120Y42616D01*
X280082Y42706D01*
X280048Y42798D01*
X280017Y42891D01*
X279990Y42986D01*
X279967Y43081D01*
X279947Y43178D01*
X279932Y43274D01*
X279920Y43372D01*
X279912Y43470D01*
X279908Y43568D01*
X279908Y43666D01*
X279912Y43764D01*
X279920Y43862D01*
X279932Y43960D01*
X279947Y44056D01*
X279967Y44153D01*
X279990Y44248D01*
X280017Y44343D01*
X280048Y44436D01*
X280082Y44528D01*
X280120Y44618D01*
X280162Y44707D01*
X280207Y44794D01*
X280255Y44880D01*
X280307Y44963D01*
X280362Y45044D01*
X280421Y45123D01*
X280482Y45200D01*
X280547Y45274D01*
X280614Y45345D01*
X280684Y45414D01*
X280757Y45480D01*
X280832Y45543D01*
X280910Y45603D01*
X280990Y45660D01*
X281072Y45713D01*
X281157Y45763D01*
X281243Y45810D01*
X281331Y45854D01*
X281421Y45893D01*
X281512Y45930D01*
X281605Y45962D01*
X281699Y45991D01*
X281793Y46016D01*
X281889Y46037D01*
X281986Y46055D01*
X282083Y46068D01*
X282181Y46078D01*
X282279Y46084D01*
X282377Y46086D01*
X281884Y50038D02*
X284847Y50038D01*
X281884Y50038D02*
X281797Y50036D01*
X281709Y50030D01*
X281622Y50021D01*
X281536Y50007D01*
X281450Y49990D01*
X281366Y49969D01*
X281282Y49944D01*
X281199Y49915D01*
X281118Y49883D01*
X281038Y49848D01*
X280960Y49809D01*
X280883Y49766D01*
X280809Y49720D01*
X280737Y49671D01*
X280667Y49619D01*
X280599Y49563D01*
X280534Y49505D01*
X280471Y49444D01*
X280412Y49380D01*
X280355Y49313D01*
X280301Y49245D01*
X280250Y49173D01*
X280203Y49100D01*
X280158Y49025D01*
X280117Y48947D01*
X280080Y48868D01*
X280046Y48788D01*
X280016Y48706D01*
X279989Y48623D01*
X279966Y48538D01*
X279947Y48453D01*
X279932Y48367D01*
X279920Y48280D01*
X279912Y48193D01*
X279908Y48106D01*
X279908Y48018D01*
X279912Y47931D01*
X279920Y47844D01*
X279932Y47757D01*
X279947Y47671D01*
X279966Y47586D01*
X279989Y47501D01*
X280016Y47418D01*
X280046Y47336D01*
X280080Y47256D01*
X280117Y47177D01*
X280158Y47099D01*
X280203Y47024D01*
X280250Y46951D01*
X280301Y46879D01*
X280355Y46811D01*
X280412Y46744D01*
X280471Y46680D01*
X280534Y46619D01*
X280599Y46561D01*
X280667Y46505D01*
X280737Y46453D01*
X280809Y46404D01*
X280883Y46358D01*
X280960Y46315D01*
X281038Y46276D01*
X281118Y46241D01*
X281199Y46209D01*
X281282Y46180D01*
X281366Y46155D01*
X281450Y46134D01*
X281536Y46117D01*
X281622Y46103D01*
X281709Y46094D01*
X281797Y46088D01*
X281884Y46086D01*
X281884Y46087D02*
X283859Y46087D01*
X293697Y193548D02*
X293697Y202438D01*
X291227Y202438D01*
X291129Y202436D01*
X291031Y202430D01*
X290933Y202420D01*
X290836Y202407D01*
X290739Y202389D01*
X290643Y202368D01*
X290549Y202343D01*
X290455Y202314D01*
X290362Y202282D01*
X290271Y202245D01*
X290181Y202206D01*
X290093Y202162D01*
X290007Y202115D01*
X289922Y202065D01*
X289840Y202012D01*
X289760Y201955D01*
X289682Y201895D01*
X289607Y201832D01*
X289534Y201766D01*
X289464Y201697D01*
X289397Y201626D01*
X289332Y201552D01*
X289271Y201475D01*
X289212Y201396D01*
X289157Y201315D01*
X289105Y201232D01*
X289057Y201146D01*
X289012Y201059D01*
X288970Y200970D01*
X288932Y200880D01*
X288898Y200788D01*
X288867Y200695D01*
X288840Y200600D01*
X288817Y200505D01*
X288797Y200408D01*
X288782Y200312D01*
X288770Y200214D01*
X288762Y200116D01*
X288758Y200018D01*
X288758Y199920D01*
X288762Y199822D01*
X288770Y199724D01*
X288782Y199626D01*
X288797Y199530D01*
X288817Y199433D01*
X288840Y199338D01*
X288867Y199243D01*
X288898Y199150D01*
X288932Y199058D01*
X288970Y198968D01*
X289012Y198879D01*
X289057Y198792D01*
X289105Y198706D01*
X289157Y198623D01*
X289212Y198542D01*
X289271Y198463D01*
X289332Y198386D01*
X289397Y198312D01*
X289464Y198241D01*
X289534Y198172D01*
X289607Y198106D01*
X289682Y198043D01*
X289760Y197983D01*
X289840Y197926D01*
X289922Y197873D01*
X290007Y197823D01*
X290093Y197776D01*
X290181Y197732D01*
X290271Y197693D01*
X290362Y197656D01*
X290455Y197624D01*
X290549Y197595D01*
X290643Y197570D01*
X290739Y197549D01*
X290836Y197531D01*
X290933Y197518D01*
X291031Y197508D01*
X291129Y197502D01*
X291227Y197500D01*
X291227Y197499D02*
X293697Y197499D01*
X290733Y197499D02*
X288758Y193548D01*
X284847Y195524D02*
X282871Y202438D01*
X284847Y195524D02*
X279908Y195524D01*
X281390Y197499D02*
X281390Y193548D01*
M02*
