G04 EAGLE Gerber RS-274X export*
G75*
%MOMM*%
%FSLAX34Y34*%
%LPD*%
%INSoldermask Bottom*%
%IPPOS*%
%AMOC8*
5,1,8,0,0,1.08239X$1,22.5*%
G01*
%ADD10C,1.727200*%
%ADD11C,1.524000*%
%ADD12R,1.503200X1.703200*%
%ADD13R,1.703200X1.703200*%


D10*
X177800Y309880D02*
X177800Y325120D01*
X203200Y325120D02*
X203200Y309880D01*
X228600Y309880D02*
X228600Y325120D01*
X254000Y325120D02*
X254000Y309880D01*
X279400Y309880D02*
X279400Y325120D01*
X304800Y325120D02*
X304800Y309880D01*
D11*
X101600Y184404D02*
X101600Y171196D01*
X101600Y247396D02*
X101600Y260604D01*
X101600Y108204D02*
X101600Y94996D01*
X101600Y32004D02*
X101600Y18796D01*
X381000Y94996D02*
X381000Y108204D01*
X381000Y32004D02*
X381000Y18796D01*
X381000Y171196D02*
X381000Y184404D01*
X381000Y247396D02*
X381000Y260604D01*
D10*
X71120Y203200D02*
X55880Y203200D01*
X55880Y228600D02*
X71120Y228600D01*
X71120Y76200D02*
X55880Y76200D01*
X55880Y50800D02*
X71120Y50800D01*
X411480Y76200D02*
X426720Y76200D01*
X426720Y50800D02*
X411480Y50800D01*
X411480Y203200D02*
X426720Y203200D01*
X426720Y228600D02*
X411480Y228600D01*
X381000Y335280D02*
X381000Y350520D01*
X355600Y350520D02*
X355600Y335280D01*
D12*
X187300Y215900D03*
X168300Y215900D03*
X187300Y63500D03*
X168300Y63500D03*
X295300Y63500D03*
X314300Y63500D03*
X295300Y215900D03*
X314300Y215900D03*
D11*
X146304Y241300D02*
X133096Y241300D01*
X133096Y190500D02*
X146304Y190500D01*
X146304Y215900D02*
X133096Y215900D01*
X133096Y38100D02*
X146304Y38100D01*
X146304Y88900D02*
X133096Y88900D01*
X133096Y63500D02*
X146304Y63500D01*
X336296Y38100D02*
X349504Y38100D01*
X349504Y88900D02*
X336296Y88900D01*
X336296Y63500D02*
X349504Y63500D01*
X349504Y241300D02*
X336296Y241300D01*
X336296Y190500D02*
X349504Y190500D01*
X349504Y215900D02*
X336296Y215900D01*
D13*
X190500Y190500D03*
X190500Y165100D03*
X190500Y139700D03*
X266700Y190500D03*
X266700Y165100D03*
X266700Y139700D03*
X304800Y279400D03*
X304800Y254000D03*
M02*
